<?xml version="1.0" encoding="UTF-8" standalone="no"?>
<svg
   width="117.15213"
   height="117.15009"
   version="1.1"
   id="svg184"
   sodipodi:docname="strudel.svg"
   xmlns:inkscape="http://www.inkscape.org/namespaces/inkscape"
   xmlns:sodipodi="http://sodipodi.sourceforge.net/DTD/sodipodi-0.dtd"
   xmlns="http://www.w3.org/2000/svg"
   xmlns:svg="http://www.w3.org/2000/svg">
  <sodipodi:namedview
     id="namedview186"
     pagecolor="#ffffff"
     bordercolor="#cccccc"
     borderopacity="1"
     inkscape:showpageshadow="0"
     inkscape:pageopacity="1"
     inkscape:pagecheckerboard="0"
     inkscape:deskcolor="#d1d1d1"
     showgrid="false" />
  <defs
     id="defs170">
    <linearGradient
       x1="25.318438"
       y1="25.31299"
       x2="147.54253"
       y2="147.5388"
       spreadMethod="pad"
       id="linearGradient56"
       gradientTransform="scale(1.0000087,0.99999132)"
       gradientUnits="userSpaceOnUse">
      <stop
         stop-color="#1a2243"
         offset="0"
         id="stop50" />
      <stop
         stop-color="#46c1b9"
         offset="0.5"
         id="stop52" />
      <stop
         stop-color="#c5115b"
         offset="1"
         id="stop54" />
    </linearGradient>
  </defs>
  <g
     id="g182"
     transform="translate(171.72026,-50.034359)"
     inkscape:export-filename="strudel2.svg"
     inkscape:export-xdpi="8.1944733"
     inkscape:export-ydpi="8.1944733">
    <title
       id="title172">Layer 1</title>
    <g
       id="g10"
       transform="matrix(1.3333333,0,0,-1.3333333,0,251.46154)">
      <g
         id="g4682"
         transform="matrix(1.0102733,0,0,1.0102733,5.9790415,5.979062)">
        <g
           id="g28"
           transform="matrix(0.5031304,0,0,0.5031304,-133.39879,56.647812)">
          <path
             fill="url(#linearGradient56)"
             id="path58"
             d="m 86.43,3.11601 v 3.117 c 44.293,0 80.199,35.906 80.199,80.199 h 3.117 c 0,-46.016 -37.301,-83.316 -83.316,-83.316 z m -58.379,83.316 h -3.11 c 0,33.961 27.528,61.488 61.489,61.488 v -3.117 c -32.239,0 -58.375,-26.133 -58.375,-58.371 h 6.226 c 0,-28.801 23.348,-52.148 52.149,-52.148 v -3.118 c 30.523,0 55.261,24.743 55.261,55.266 h 3.118 c 0,-32.242 -26.137,-58.379 -58.379,-58.379 -32.239,0 -58.379,26.137 -58.379,58.379 z m 58.379,-48.941 c 27.031,0 48.941,21.91 48.941,48.941 h -3.031 c 0,-25.355 -20.555,-45.914 -45.91,-45.914 v 3.117 c 23.636,0 42.797,19.16 42.797,42.797 0,23.602 -19.196,42.805 -42.797,42.805 v -3.125 c -21.914,0 -39.68,-17.766 -39.68,-39.68 h -3.125 c 0,23.641 19.164,42.805 42.805,42.805 v 6.152 c -27.039,0 -48.957,-21.918 -48.957,-48.957 h -3.184 c 0,28.797 23.348,52.141 52.141,52.141 v -3.184 c 27.086,0 48.941,-21.875 48.941,-48.957 h 3.203 c 0,-28.801 -23.344,-52.144 -52.144,-52.144 z m 36.562,48.941 h 3.117 c 0,-21.914 -17.765,-39.68 -39.679,-39.68 v 3.118 c 20.195,0 36.562,16.371 36.562,36.562 z M 86.43,52.92801 v 3.156 c 16.761,0 30.347,13.586 30.347,30.348 h 3.157 c 0,-18.504 -15,-33.504 -33.504,-33.504 z m -30.34,33.504 h -3.121 c 0,18.48 14.98,33.461 33.461,33.461 v -3.121 c -16.754,0 -30.34,-13.586 -30.34,-30.34 z m 6.238,0 c 0,13.309 10.793,24.102 24.102,24.102 v 3.004 c 15.031,0 27.144,-12.075 27.144,-27.106 0,-14.992 -12.152,-27.144 -27.144,-27.144 v 3.039 c -13.313,0 -24.106,10.793 -24.106,24.105 z m -46.738,0 c 0,39.125 31.719,70.84 70.84,70.84 39.187,0 70.843,-31.652 70.843,-70.84 0,-39.129 -31.714,-70.848 -70.843,-70.848 v 3.118 c 37.406,0 67.73,30.324 67.73,67.73 h -3.117 c 0,-35.684 -28.926,-64.613 -64.613,-64.613 v 3.117 c 33.965,0 61.496,27.531 61.496,61.496 h 3.117 c 0,35.742 -28.867,64.641 -64.613,64.641 v 3.082 c -37.403,0 -67.723,-30.321 -67.723,-67.723 z m -9.348,0 c 0,44.285 35.903,80.188 80.188,80.188 v -3.118 c -42.567,0 -77.075,-34.504 -77.075,-77.07 z m 157.266,0 c 0,-42.57 -34.508,-77.078 -77.078,-77.078 v 3.113 c 40.847,0 73.961,33.117 73.961,73.965 z m 9.344,0 c 0,47.73 -38.692,86.422 -86.422,86.422 -47.731,0 -86.422,-38.692 -86.422,-86.422 H 0 c 0,-47.734 38.695,-86.434 86.43,-86.434 47.734,0 86.429,38.7 86.429,86.434 h -0.007"
             style="fill:url(#linearGradient56)" />
        </g>
      </g>
    </g>
  </g>
</svg>
